<svg width="8" height="5" viewBox="0 0 8 5" fill="none" xmlns="http://www.w3.org/2000/svg">
<path d="M4.31216 4.72222L7.8722 1.16212C7.9546 1.07978 8 0.969863 8 0.852661C8 0.735459 7.9546 0.625541 7.8722 0.5432L7.61008 0.281023C7.43929 0.110423 7.1617 0.110423 6.99116 0.281023L4.00166 3.27053L1.00884 0.277706C0.926432 0.195365 0.816579 0.149902 0.699441 0.149902C0.582174 0.149902 0.472322 0.195365 0.389851 0.277706L0.127804 0.539883C0.0453982 0.622288 4.51387e-07 0.732141 4.46264e-07 0.849344C4.41141e-07 0.966546 0.0453982 1.07646 0.127804 1.1588L3.69109 4.72222C3.77376 4.80476 3.88413 4.85009 4.00146 4.84983C4.11925 4.85009 4.22956 4.80476 4.31216 4.72222Z" fill="white"/>
</svg>
