<svg width="209" height="14" viewBox="0 0 209 14" fill="none" xmlns="http://www.w3.org/2000/svg">
<path opacity="0.7" d="M8.288 3.846C8.092 2.98733 7.728 2.376 7.196 2.012C6.664 1.648 5.96867 1.466 5.11 1.466C4.50333 1.466 3.98067 1.58733 3.542 1.83C3.10333 2.07267 2.73933 2.39933 2.45 2.81C2.17 3.22067 1.96 3.69667 1.82 4.238C1.68933 4.77 1.624 5.33467 1.624 5.932C1.624 6.492 1.68 7.04267 1.792 7.584C1.91333 8.12533 2.10933 8.61067 2.38 9.04C2.65067 9.46 3.01467 9.80067 3.472 10.062C3.92933 10.3233 4.50333 10.454 5.194 10.454C5.62333 10.454 6.01533 10.384 6.37 10.244C6.72467 10.104 7.03267 9.91267 7.294 9.67C7.56467 9.418 7.78867 9.124 7.966 8.788C8.15267 8.452 8.29267 8.08333 8.386 7.682H9.38C9.268 8.16733 9.10467 8.62933 8.89 9.068C8.67533 9.49733 8.39067 9.87533 8.036 10.202C7.69067 10.5287 7.266 10.79 6.762 10.986C6.26733 11.1727 5.684 11.266 5.012 11.266C4.23733 11.266 3.57467 11.126 3.024 10.846C2.47333 10.5567 2.02067 10.1693 1.666 9.684C1.32067 9.19867 1.06867 8.63867 0.91 8.004C0.751333 7.36 0.672 6.67867 0.672 5.96C0.672 4.99867 0.788667 4.182 1.022 3.51C1.26467 2.838 1.596 2.292 2.016 1.872C2.436 1.44267 2.93067 1.13467 3.5 0.947999C4.06933 0.752 4.69 0.654 5.362 0.654C5.87533 0.654 6.35133 0.724 6.79 0.863999C7.238 0.994666 7.63 1.19533 7.966 1.466C8.31133 1.73667 8.59133 2.07267 8.806 2.474C9.03 2.866 9.184 3.32333 9.268 3.846H8.288ZM14.7955 11.196C14.3288 11.1867 13.8902 11.1027 13.4795 10.944C13.0782 10.7853 12.7235 10.5473 12.4155 10.23C12.1168 9.91267 11.8788 9.516 11.7015 9.04C11.5242 8.564 11.4355 8.00867 11.4355 7.374C11.4355 6.842 11.5055 6.34733 11.6455 5.89C11.7855 5.42333 11.9955 5.01733 12.2755 4.672C12.5555 4.32667 12.9055 4.056 13.3255 3.86C13.7455 3.65467 14.2355 3.552 14.7955 3.552C15.3648 3.552 15.8595 3.65467 16.2795 3.86C16.6995 4.056 17.0495 4.32667 17.3295 4.672C17.6095 5.008 17.8148 5.40933 17.9455 5.876C18.0855 6.34267 18.1555 6.842 18.1555 7.374C18.1555 7.95267 18.0762 8.47533 17.9175 8.942C17.7588 9.40867 17.5302 9.81 17.2315 10.146C16.9422 10.482 16.5875 10.7433 16.1675 10.93C15.7568 11.1073 15.2995 11.196 14.7955 11.196ZM17.2595 7.374C17.2595 6.94467 17.2128 6.54333 17.1195 6.17C17.0262 5.79667 16.8815 5.47467 16.6855 5.204C16.4895 4.924 16.2375 4.70467 15.9295 4.546C15.6215 4.38733 15.2435 4.308 14.7955 4.308C14.3568 4.308 13.9788 4.39667 13.6615 4.574C13.3535 4.742 13.1015 4.97067 12.9055 5.26C12.7095 5.54 12.5648 5.86667 12.4715 6.24C12.3782 6.604 12.3315 6.982 12.3315 7.374C12.3315 7.822 12.3828 8.23733 12.4855 8.62C12.5975 8.99333 12.7562 9.31533 12.9615 9.586C13.1668 9.85667 13.4235 10.0667 13.7315 10.216C14.0395 10.3653 14.3942 10.44 14.7955 10.44C15.2342 10.44 15.6075 10.356 15.9155 10.188C16.2328 10.0107 16.4895 9.77733 16.6855 9.488C16.8815 9.19867 17.0262 8.872 17.1195 8.508C17.2128 8.144 17.2595 7.766 17.2595 7.374ZM21.4288 7.402C21.4288 7.81267 21.4848 8.20467 21.5968 8.578C21.7088 8.942 21.8675 9.264 22.0728 9.544C22.2875 9.81467 22.5441 10.034 22.8428 10.202C23.1508 10.3607 23.4961 10.44 23.8788 10.44C24.3081 10.44 24.6815 10.356 24.9988 10.188C25.3255 10.0107 25.5915 9.77267 25.7968 9.474C26.0021 9.17533 26.1515 8.83 26.2448 8.438C26.3381 8.03667 26.3755 7.60733 26.3568 7.15C26.3568 6.69267 26.2915 6.29133 26.1608 5.946C26.0395 5.59133 25.8668 5.29267 25.6428 5.05C25.4188 4.80733 25.1575 4.62533 24.8588 4.504C24.5601 4.37333 24.2335 4.308 23.8788 4.308C23.4868 4.308 23.1368 4.38733 22.8288 4.546C22.5208 4.70467 22.2641 4.924 22.0588 5.204C21.8535 5.47467 21.6948 5.80133 21.5828 6.184C21.4801 6.55733 21.4288 6.96333 21.4288 7.402ZM21.4288 13.856H20.5888V3.748H21.4288V5.022H21.4568C21.5781 4.78867 21.7321 4.57867 21.9188 4.392C22.1148 4.20533 22.3248 4.05133 22.5488 3.93C22.7821 3.80867 23.0201 3.71533 23.2628 3.65C23.5055 3.58467 23.7435 3.552 23.9768 3.552C24.5648 3.552 25.0641 3.65 25.4748 3.846C25.8855 4.042 26.2215 4.31267 26.4828 4.658C26.7535 4.994 26.9495 5.39533 27.0708 5.862C27.1921 6.32867 27.2528 6.828 27.2528 7.36C27.2528 7.864 27.1875 8.34933 27.0568 8.816C26.9261 9.28267 26.7255 9.69333 26.4548 10.048C26.1935 10.3933 25.8575 10.6733 25.4468 10.888C25.0455 11.0933 24.5695 11.196 24.0188 11.196C23.5055 11.196 23.0108 11.084 22.5348 10.86C22.0681 10.6267 21.6995 10.286 21.4288 9.838V13.856ZM29.7934 12.974C29.9054 12.9927 30.0174 13.0113 30.1294 13.03C30.2507 13.0487 30.3721 13.058 30.4934 13.058C30.7267 13.058 30.9181 12.9833 31.0674 12.834C31.2167 12.6847 31.3381 12.5027 31.4314 12.288C31.5341 12.0827 31.6181 11.8633 31.6834 11.63C31.7487 11.406 31.8234 11.2147 31.9074 11.056L29.0934 3.748H30.0314L32.3554 9.978L34.6794 3.748H35.5894L32.8874 10.902C32.7194 11.3593 32.5561 11.77 32.3974 12.134C32.2481 12.498 32.0847 12.806 31.9074 13.058C31.7394 13.3193 31.5481 13.5153 31.3334 13.646C31.1281 13.786 30.8807 13.856 30.5914 13.856C30.4421 13.856 30.2974 13.8467 30.1574 13.828C30.0267 13.8093 29.9054 13.786 29.7934 13.758V12.974ZM38.5314 11H37.6914V3.748H38.5314V5.106H38.5594C38.7927 4.52733 39.0914 4.126 39.4554 3.902C39.8287 3.66867 40.3187 3.552 40.9254 3.552V4.462C40.4494 4.45267 40.0574 4.52733 39.7494 4.686C39.4414 4.84467 39.1941 5.05933 39.0074 5.33C38.8301 5.60067 38.7041 5.92267 38.6294 6.296C38.5641 6.66 38.5314 7.04267 38.5314 7.444V11ZM42.9914 11V3.748H43.8314V11H42.9914ZM42.9494 2.166V0.92H43.8734V2.166H42.9494ZM52.3689 7.402C52.3689 6.96333 52.3129 6.55733 52.2009 6.184C52.0983 5.80133 51.9443 5.47467 51.7389 5.204C51.5336 4.924 51.2769 4.70467 50.9689 4.546C50.6609 4.38733 50.3109 4.308 49.9189 4.308C49.5643 4.308 49.2376 4.37333 48.9389 4.504C48.6403 4.62533 48.3789 4.80733 48.1549 5.05C47.9309 5.29267 47.7536 5.59133 47.6229 5.946C47.5016 6.29133 47.4409 6.69267 47.4409 7.15C47.4223 7.60733 47.4596 8.03667 47.5529 8.438C47.6463 8.83 47.7956 9.17533 48.0009 9.474C48.2063 9.77267 48.4676 10.0107 48.7849 10.188C49.1023 10.356 49.4803 10.44 49.9189 10.44C50.3016 10.44 50.6423 10.3607 50.9409 10.202C51.2489 10.034 51.5056 9.81467 51.7109 9.544C51.9256 9.264 52.0889 8.942 52.2009 8.578C52.3129 8.20467 52.3689 7.81267 52.3689 7.402ZM52.3689 3.748H53.2089V10.3C53.2089 10.7853 53.1576 11.2473 53.0549 11.686C52.9616 12.134 52.7889 12.526 52.5369 12.862C52.2849 13.198 51.9396 13.464 51.5009 13.66C51.0623 13.8653 50.4976 13.968 49.8069 13.968C49.2749 13.968 48.8176 13.898 48.4349 13.758C48.0523 13.6273 47.7396 13.4593 47.4969 13.254C47.2543 13.0487 47.0676 12.82 46.9369 12.568C46.8156 12.3253 46.7503 12.0967 46.7409 11.882H47.6369C47.7023 12.1527 47.8049 12.372 47.9449 12.54C48.0849 12.7173 48.2483 12.8527 48.4349 12.946C48.6309 13.0487 48.8456 13.1187 49.0789 13.156C49.3123 13.1933 49.5549 13.212 49.8069 13.212C50.3763 13.212 50.8336 13.114 51.1789 12.918C51.5243 12.722 51.7856 12.4653 51.9629 12.148C52.1403 11.8307 52.2523 11.4713 52.2989 11.07C52.3549 10.6687 52.3783 10.258 52.3689 9.838C52.0983 10.286 51.7249 10.6267 51.2489 10.86C50.7823 11.084 50.2923 11.196 49.7789 11.196C49.2283 11.196 48.7476 11.0933 48.3369 10.888C47.9356 10.6733 47.5996 10.3933 47.3289 10.048C47.0676 9.69333 46.8716 9.28267 46.7409 8.816C46.6103 8.34933 46.5449 7.864 46.5449 7.36C46.5449 6.828 46.6056 6.32867 46.7269 5.862C46.8483 5.39533 47.0396 4.994 47.3009 4.658C47.5716 4.31267 47.9123 4.042 48.3229 3.846C48.7336 3.65 49.2329 3.552 49.8209 3.552C50.0543 3.552 50.2923 3.58467 50.5349 3.65C50.7776 3.71533 51.0109 3.80867 51.2349 3.93C51.4683 4.05133 51.6783 4.20533 51.8649 4.392C52.0609 4.57867 52.2196 4.78867 52.3409 5.022H52.3689V3.748ZM56.1275 11V0.92H56.9675V4.756C57.3035 4.40133 57.6489 4.112 58.0035 3.888C58.3675 3.664 58.8015 3.552 59.3055 3.552C59.7535 3.552 60.1689 3.63133 60.5515 3.79C60.9342 3.93933 61.2562 4.20533 61.5175 4.588C61.6949 4.84933 61.7975 5.12 61.8255 5.4C61.8629 5.67067 61.8815 5.95533 61.8815 6.254V11H61.0415V6.268C61.0415 5.61467 60.8969 5.12467 60.6075 4.798C60.3182 4.47133 59.8375 4.308 59.1655 4.308C58.9042 4.308 58.6662 4.35 58.4515 4.434C58.2369 4.50867 58.0409 4.61133 57.8635 4.742C57.6955 4.87267 57.5509 5.022 57.4295 5.19C57.3082 5.358 57.2149 5.53533 57.1495 5.722C57.0655 5.95533 57.0142 6.17933 56.9955 6.394C56.9769 6.60867 56.9675 6.842 56.9675 7.094V11H56.1275ZM67.2548 11.028C67.1522 11.0467 67.0168 11.0793 66.8488 11.126C66.6808 11.1727 66.4942 11.196 66.2888 11.196C65.8688 11.196 65.5468 11.0933 65.3228 10.888C65.1082 10.6733 65.0008 10.2953 65.0008 9.754V4.448H63.9788V3.748H65.0008V1.732H65.8408V3.748H67.1988V4.448H65.8408V9.418C65.8408 9.59533 65.8455 9.74933 65.8548 9.88C65.8642 10.0107 65.8922 10.118 65.9388 10.202C65.9855 10.286 66.0555 10.3467 66.1488 10.384C66.2515 10.4213 66.3915 10.44 66.5688 10.44C66.6808 10.44 66.7928 10.4307 66.9048 10.412C67.0262 10.3933 67.1428 10.37 67.2548 10.342V11.028ZM78.7058 11.266C77.9685 11.266 77.2778 11.126 76.6338 10.846C75.9898 10.566 75.4251 10.188 74.9398 9.712C74.4638 9.22667 74.0858 8.662 73.8058 8.018C73.5258 7.374 73.3858 6.68333 73.3858 5.946C73.3858 5.218 73.5258 4.532 73.8058 3.888C74.0858 3.244 74.4638 2.684 74.9398 2.208C75.4251 1.732 75.9898 1.354 76.6338 1.074C77.2778 0.794 77.9685 0.654 78.7058 0.654C79.4338 0.654 80.1198 0.794 80.7638 1.074C81.4078 1.354 81.9678 1.732 82.4438 2.208C82.9291 2.684 83.3071 3.244 83.5778 3.888C83.8578 4.532 83.9978 5.218 83.9978 5.946C83.9978 6.68333 83.8578 7.374 83.5778 8.018C83.3071 8.662 82.9291 9.22667 82.4438 9.712C81.9678 10.188 81.4078 10.566 80.7638 10.846C80.1198 11.126 79.4338 11.266 78.7058 11.266ZM78.7058 10.566C79.3498 10.566 79.9425 10.4493 80.4838 10.216C81.0345 9.97333 81.5058 9.64667 81.8978 9.236C82.2898 8.816 82.5978 8.326 82.8218 7.766C83.0458 7.206 83.1578 6.59933 83.1578 5.946C83.1578 5.302 83.0458 4.7 82.8218 4.14C82.5978 3.58 82.2898 3.09467 81.8978 2.684C81.5058 2.27333 81.0345 1.95133 80.4838 1.718C79.9425 1.47533 79.3498 1.354 78.7058 1.354C78.0618 1.354 77.4645 1.47533 76.9138 1.718C76.3631 1.95133 75.8871 2.27333 75.4858 2.684C75.0938 3.09467 74.7858 3.58 74.5618 4.14C74.3378 4.7 74.2258 5.302 74.2258 5.946C74.2258 6.59933 74.3378 7.206 74.5618 7.766C74.7858 8.326 75.0938 8.816 75.4858 9.236C75.8871 9.64667 76.3631 9.97333 76.9138 10.216C77.4645 10.4493 78.0618 10.566 78.7058 10.566ZM81.3938 6.912C81.3658 7.22933 81.2771 7.51867 81.1278 7.78C80.9878 8.032 80.8058 8.24667 80.5818 8.424C80.3578 8.60133 80.1058 8.73667 79.8258 8.83C79.5458 8.92333 79.2518 8.97 78.9438 8.97C78.4958 8.97 78.0898 8.89067 77.7258 8.732C77.3711 8.57333 77.0631 8.35867 76.8018 8.088C76.5498 7.81733 76.3538 7.49533 76.2138 7.122C76.0738 6.74867 76.0038 6.34267 76.0038 5.904C76.0038 5.46533 76.0691 5.064 76.1998 4.7C76.3305 4.32667 76.5218 4.00467 76.7738 3.734C77.0258 3.46333 77.3291 3.25333 77.6838 3.104C78.0478 2.94533 78.4538 2.866 78.9018 2.866C79.5458 2.866 80.0965 3.03867 80.5538 3.384C81.0111 3.72933 81.2911 4.224 81.3938 4.868H80.6378C80.5631 4.448 80.3625 4.112 80.0358 3.86C79.7091 3.608 79.3358 3.482 78.9158 3.482C78.5611 3.482 78.2531 3.54733 77.9918 3.678C77.7305 3.79933 77.5111 3.972 77.3338 4.196C77.1658 4.41067 77.0351 4.66733 76.9418 4.966C76.8578 5.25533 76.8158 5.56333 76.8158 5.89C76.8158 6.20733 76.8625 6.51533 76.9558 6.814C77.0491 7.11267 77.1845 7.37867 77.3618 7.612C77.5485 7.836 77.7725 8.018 78.0338 8.158C78.2951 8.28867 78.5985 8.354 78.9438 8.354C79.1491 8.354 79.3451 8.32133 79.5318 8.256C79.7278 8.19067 79.9005 8.09733 80.0498 7.976C80.2085 7.84533 80.3391 7.69133 80.4418 7.514C80.5445 7.33667 80.6098 7.136 80.6378 6.912H81.3938ZM90.7515 4.364C90.7515 3.87867 90.8262 3.44 90.9755 3.048C91.1249 2.64667 91.3395 2.306 91.6195 2.026C91.8995 1.73667 92.2355 1.51733 92.6275 1.368C93.0289 1.20933 93.4722 1.13 93.9575 1.13C94.4522 1.13 94.8862 1.20467 95.2595 1.354C95.6422 1.494 95.9595 1.68533 96.2115 1.928C96.4729 2.17067 96.6689 2.46 96.7995 2.796C96.9302 3.132 96.9955 3.48667 96.9955 3.86C96.9955 4.29867 96.9209 4.686 96.7715 5.022C96.6315 5.358 96.4402 5.65667 96.1975 5.918C95.9642 6.17933 95.6935 6.41267 95.3855 6.618C95.0869 6.82333 94.7789 7.01933 94.4615 7.206C94.1442 7.38333 93.8315 7.556 93.5235 7.724C93.2155 7.892 92.9402 8.06933 92.6975 8.256C92.5389 8.37733 92.3849 8.508 92.2355 8.648C92.0862 8.77867 91.9509 8.92333 91.8295 9.082C91.7082 9.24067 91.6102 9.418 91.5355 9.614C91.4609 9.80067 91.4189 10.0107 91.4095 10.244H96.9115V11H90.4575C90.4669 10.524 90.5182 10.0947 90.6115 9.712C90.7049 9.32933 90.9102 8.956 91.2275 8.592C91.5729 8.2 91.9275 7.864 92.2915 7.584C92.6649 7.304 93.0289 7.05667 93.3835 6.842C93.7382 6.618 94.0742 6.41733 94.3915 6.24C94.7089 6.05333 94.9889 5.85267 95.2315 5.638C95.4742 5.42333 95.6655 5.18067 95.8055 4.91C95.9455 4.63933 96.0155 4.308 96.0155 3.916C96.0155 3.59867 95.9595 3.314 95.8475 3.062C95.7355 2.81 95.5815 2.59533 95.3855 2.418C95.1895 2.24067 94.9609 2.11 94.6995 2.026C94.4382 1.93267 94.1535 1.886 93.8455 1.886C93.5189 1.886 93.2202 1.956 92.9495 2.096C92.6882 2.22667 92.4595 2.404 92.2635 2.628C92.0769 2.852 91.9322 3.11333 91.8295 3.412C91.7269 3.71067 91.6849 4.028 91.7035 4.364H90.7515ZM104.693 6.142C104.693 5.61 104.66 5.092 104.595 4.588C104.539 4.07467 104.422 3.61733 104.245 3.216C104.068 2.81467 103.816 2.49267 103.489 2.25C103.172 2.00733 102.752 1.886 102.229 1.886C101.734 1.886 101.328 2.012 101.011 2.264C100.703 2.50667 100.46 2.83333 100.283 3.244C100.106 3.65467 99.9795 4.12133 99.9048 4.644C99.8395 5.16667 99.8068 5.69867 99.8068 6.24C99.8068 6.87467 99.8442 7.45333 99.9188 7.976C100.003 8.48933 100.138 8.928 100.325 9.292C100.512 9.656 100.759 9.94067 101.067 10.146C101.384 10.342 101.781 10.44 102.257 10.44C102.789 10.44 103.214 10.3093 103.531 10.048C103.858 9.78667 104.105 9.45067 104.273 9.04C104.441 8.62933 104.553 8.16733 104.609 7.654C104.665 7.14067 104.693 6.63667 104.693 6.142ZM102.257 1.13C102.742 1.13 103.162 1.20467 103.517 1.354C103.872 1.494 104.17 1.69 104.413 1.942C104.665 2.194 104.866 2.488 105.015 2.824C105.174 3.16 105.295 3.51933 105.379 3.902C105.463 4.27533 105.519 4.66267 105.547 5.064C105.575 5.46533 105.589 5.85733 105.589 6.24C105.589 6.89333 105.542 7.51867 105.449 8.116C105.356 8.71333 105.183 9.24067 104.931 9.698C104.688 10.1553 104.352 10.5193 103.923 10.79C103.494 11.0607 102.938 11.196 102.257 11.196C101.576 11.196 101.016 11.0607 100.577 10.79C100.148 10.5193 99.8068 10.1553 99.5548 9.698C99.3122 9.23133 99.1442 8.69467 99.0508 8.088C98.9575 7.472 98.9108 6.82333 98.9108 6.142C98.9108 5.51667 98.9528 4.90533 99.0368 4.308C99.1208 3.71067 99.2795 3.17867 99.5128 2.712C99.7555 2.236 100.096 1.85333 100.535 1.564C100.974 1.27467 101.548 1.13 102.257 1.13ZM107.91 4.364C107.91 3.87867 107.985 3.44 108.134 3.048C108.283 2.64667 108.498 2.306 108.778 2.026C109.058 1.73667 109.394 1.51733 109.786 1.368C110.187 1.20933 110.631 1.13 111.116 1.13C111.611 1.13 112.045 1.20467 112.418 1.354C112.801 1.494 113.118 1.68533 113.37 1.928C113.631 2.17067 113.827 2.46 113.958 2.796C114.089 3.132 114.154 3.48667 114.154 3.86C114.154 4.29867 114.079 4.686 113.93 5.022C113.79 5.358 113.599 5.65667 113.356 5.918C113.123 6.17933 112.852 6.41267 112.544 6.618C112.245 6.82333 111.937 7.01933 111.62 7.206C111.303 7.38333 110.99 7.556 110.682 7.724C110.374 7.892 110.099 8.06933 109.856 8.256C109.697 8.37733 109.543 8.508 109.394 8.648C109.245 8.77867 109.109 8.92333 108.988 9.082C108.867 9.24067 108.769 9.418 108.694 9.614C108.619 9.80067 108.577 10.0107 108.568 10.244H114.07V11H107.616C107.625 10.524 107.677 10.0947 107.77 9.712C107.863 9.32933 108.069 8.956 108.386 8.592C108.731 8.2 109.086 7.864 109.45 7.584C109.823 7.304 110.187 7.05667 110.542 6.842C110.897 6.618 111.233 6.41733 111.55 6.24C111.867 6.05333 112.147 5.85267 112.39 5.638C112.633 5.42333 112.824 5.18067 112.964 4.91C113.104 4.63933 113.174 4.308 113.174 3.916C113.174 3.59867 113.118 3.314 113.006 3.062C112.894 2.81 112.74 2.59533 112.544 2.418C112.348 2.24067 112.119 2.11 111.858 2.026C111.597 1.93267 111.312 1.886 111.004 1.886C110.677 1.886 110.379 1.956 110.108 2.096C109.847 2.22667 109.618 2.404 109.422 2.628C109.235 2.852 109.091 3.11333 108.988 3.412C108.885 3.71067 108.843 4.028 108.862 4.364H107.91ZM118.617 5.512C119.037 5.512 119.42 5.48867 119.765 5.442C120.111 5.386 120.405 5.288 120.647 5.148C120.899 4.99867 121.095 4.80267 121.235 4.56C121.375 4.31733 121.445 4.00467 121.445 3.622C121.445 3.314 121.389 3.05267 121.277 2.838C121.165 2.614 121.011 2.432 120.815 2.292C120.629 2.152 120.405 2.04933 120.143 1.984C119.891 1.91867 119.625 1.886 119.345 1.886C119.028 1.886 118.739 1.93733 118.477 2.04C118.225 2.14267 118.006 2.292 117.819 2.488C117.633 2.67467 117.488 2.89867 117.385 3.16C117.283 3.412 117.231 3.692 117.231 4H116.335C116.335 3.552 116.41 3.15067 116.559 2.796C116.718 2.432 116.961 2.096 117.287 1.788C117.595 1.508 117.941 1.33067 118.323 1.256C118.715 1.172 119.117 1.13 119.527 1.13C119.919 1.13 120.283 1.18133 120.619 1.284C120.965 1.37733 121.263 1.52667 121.515 1.732C121.767 1.928 121.968 2.18 122.117 2.488C122.267 2.796 122.341 3.15533 122.341 3.566C122.341 4.07933 122.225 4.52267 121.991 4.896C121.767 5.26933 121.417 5.55867 120.941 5.764C121.296 5.876 121.585 6.02533 121.809 6.212C122.043 6.38933 122.225 6.59 122.355 6.814C122.486 7.02867 122.575 7.25733 122.621 7.5C122.668 7.74267 122.691 7.976 122.691 8.2C122.691 8.61067 122.621 8.99333 122.481 9.348C122.341 9.70267 122.136 10.0153 121.865 10.286C121.595 10.5567 121.259 10.776 120.857 10.944C120.465 11.1027 120.017 11.1867 119.513 11.196C118.944 11.196 118.449 11.1447 118.029 11.042C117.609 10.9393 117.259 10.7713 116.979 10.538C116.699 10.2953 116.48 9.98267 116.321 9.6C116.163 9.208 116.055 8.72267 115.999 8.144H116.895C116.895 8.9 117.119 9.474 117.567 9.866C118.025 10.2487 118.617 10.44 119.345 10.44C119.7 10.44 120.031 10.3793 120.339 10.258C120.647 10.1367 120.909 9.97333 121.123 9.768C121.347 9.56267 121.515 9.32467 121.627 9.054C121.749 8.78333 121.805 8.50333 121.795 8.214C121.777 7.81267 121.683 7.48133 121.515 7.22C121.347 6.94933 121.119 6.73933 120.829 6.59C120.549 6.43133 120.218 6.32867 119.835 6.282C119.453 6.226 119.047 6.212 118.617 6.24V5.512ZM137.087 3.846C136.891 2.98733 136.527 2.376 135.995 2.012C135.463 1.648 134.768 1.466 133.909 1.466C133.303 1.466 132.78 1.58733 132.341 1.83C131.903 2.07267 131.539 2.39933 131.249 2.81C130.969 3.22067 130.759 3.69667 130.619 4.238C130.489 4.77 130.423 5.33467 130.423 5.932C130.423 6.492 130.479 7.04267 130.591 7.584C130.713 8.12533 130.909 8.61067 131.179 9.04C131.45 9.46 131.814 9.80067 132.271 10.062C132.729 10.3233 133.303 10.454 133.993 10.454C134.423 10.454 134.815 10.384 135.169 10.244C135.524 10.104 135.832 9.91267 136.093 9.67C136.364 9.418 136.588 9.124 136.765 8.788C136.952 8.452 137.092 8.08333 137.185 7.682H138.179C138.067 8.16733 137.904 8.62933 137.689 9.068C137.475 9.49733 137.19 9.87533 136.835 10.202C136.49 10.5287 136.065 10.79 135.561 10.986C135.067 11.1727 134.483 11.266 133.811 11.266C133.037 11.266 132.374 11.126 131.823 10.846C131.273 10.5567 130.82 10.1693 130.465 9.684C130.12 9.19867 129.868 8.63867 129.709 8.004C129.551 7.36 129.471 6.67867 129.471 5.96C129.471 4.99867 129.588 4.182 129.821 3.51C130.064 2.838 130.395 2.292 130.815 1.872C131.235 1.44267 131.73 1.13467 132.299 0.947999C132.869 0.752 133.489 0.654 134.161 0.654C134.675 0.654 135.151 0.724 135.589 0.863999C136.037 0.994666 136.429 1.19533 136.765 1.466C137.111 1.73667 137.391 2.07267 137.605 2.474C137.829 2.866 137.983 3.32333 138.067 3.846H137.087ZM141.593 11H140.753V3.748H141.593V5.106H141.621C141.854 4.52733 142.153 4.126 142.517 3.902C142.89 3.66867 143.38 3.552 143.987 3.552V4.462C143.511 4.45267 143.119 4.52733 142.811 4.686C142.503 4.84467 142.255 5.05933 142.069 5.33C141.891 5.60067 141.765 5.92267 141.691 6.296C141.625 6.66 141.593 7.04267 141.593 7.444V11ZM146.363 12.974C146.475 12.9927 146.587 13.0113 146.699 13.03C146.82 13.0487 146.942 13.058 147.063 13.058C147.296 13.058 147.488 12.9833 147.637 12.834C147.786 12.6847 147.908 12.5027 148.001 12.288C148.104 12.0827 148.188 11.8633 148.253 11.63C148.318 11.406 148.393 11.2147 148.477 11.056L145.663 3.748H146.601L148.925 9.978L151.249 3.748H152.159L149.457 10.902C149.289 11.3593 149.126 11.77 148.967 12.134C148.818 12.498 148.654 12.806 148.477 13.058C148.309 13.3193 148.118 13.5153 147.903 13.646C147.698 13.786 147.45 13.856 147.161 13.856C147.012 13.856 146.867 13.8467 146.727 13.828C146.596 13.8093 146.475 13.786 146.363 13.758V12.974ZM155.157 7.402C155.157 7.81267 155.213 8.20467 155.325 8.578C155.437 8.942 155.596 9.264 155.801 9.544C156.016 9.81467 156.272 10.034 156.571 10.202C156.879 10.3607 157.224 10.44 157.607 10.44C158.036 10.44 158.41 10.356 158.727 10.188C159.054 10.0107 159.32 9.77267 159.525 9.474C159.73 9.17533 159.88 8.83 159.973 8.438C160.066 8.03667 160.104 7.60733 160.085 7.15C160.085 6.69267 160.02 6.29133 159.889 5.946C159.768 5.59133 159.595 5.29267 159.371 5.05C159.147 4.80733 158.886 4.62533 158.587 4.504C158.288 4.37333 157.962 4.308 157.607 4.308C157.215 4.308 156.865 4.38733 156.557 4.546C156.249 4.70467 155.992 4.924 155.787 5.204C155.582 5.47467 155.423 5.80133 155.311 6.184C155.208 6.55733 155.157 6.96333 155.157 7.402ZM155.157 13.856H154.317V3.748H155.157V5.022H155.185C155.306 4.78867 155.46 4.57867 155.647 4.392C155.843 4.20533 156.053 4.05133 156.277 3.93C156.51 3.80867 156.748 3.71533 156.991 3.65C157.234 3.58467 157.472 3.552 157.705 3.552C158.293 3.552 158.792 3.65 159.203 3.846C159.614 4.042 159.95 4.31267 160.211 4.658C160.482 4.994 160.678 5.39533 160.799 5.862C160.92 6.32867 160.981 6.828 160.981 7.36C160.981 7.864 160.916 8.34933 160.785 8.816C160.654 9.28267 160.454 9.69333 160.183 10.048C159.922 10.3933 159.586 10.6733 159.175 10.888C158.774 11.0933 158.298 11.196 157.747 11.196C157.234 11.196 156.739 11.084 156.263 10.86C155.796 10.6267 155.428 10.286 155.157 9.838V13.856ZM166.126 11.028C166.023 11.0467 165.888 11.0793 165.72 11.126C165.552 11.1727 165.365 11.196 165.16 11.196C164.74 11.196 164.418 11.0933 164.194 10.888C163.979 10.6733 163.872 10.2953 163.872 9.754V4.448H162.85V3.748H163.872V1.732H164.712V3.748H166.07V4.448H164.712V9.418C164.712 9.59533 164.716 9.74933 164.726 9.88C164.735 10.0107 164.763 10.118 164.81 10.202C164.856 10.286 164.926 10.3467 165.02 10.384C165.122 10.4213 165.262 10.44 165.44 10.44C165.552 10.44 165.664 10.4307 165.776 10.412C165.897 10.3933 166.014 10.37 166.126 10.342V11.028ZM171.158 11.196C170.691 11.1867 170.253 11.1027 169.842 10.944C169.441 10.7853 169.086 10.5473 168.778 10.23C168.479 9.91267 168.241 9.516 168.064 9.04C167.887 8.564 167.798 8.00867 167.798 7.374C167.798 6.842 167.868 6.34733 168.008 5.89C168.148 5.42333 168.358 5.01733 168.638 4.672C168.918 4.32667 169.268 4.056 169.688 3.86C170.108 3.65467 170.598 3.552 171.158 3.552C171.727 3.552 172.222 3.65467 172.642 3.86C173.062 4.056 173.412 4.32667 173.692 4.672C173.972 5.008 174.177 5.40933 174.308 5.876C174.448 6.34267 174.518 6.842 174.518 7.374C174.518 7.95267 174.439 8.47533 174.28 8.942C174.121 9.40867 173.893 9.81 173.594 10.146C173.305 10.482 172.95 10.7433 172.53 10.93C172.119 11.1073 171.662 11.196 171.158 11.196ZM173.622 7.374C173.622 6.94467 173.575 6.54333 173.482 6.17C173.389 5.79667 173.244 5.47467 173.048 5.204C172.852 4.924 172.6 4.70467 172.292 4.546C171.984 4.38733 171.606 4.308 171.158 4.308C170.719 4.308 170.341 4.39667 170.024 4.574C169.716 4.742 169.464 4.97067 169.268 5.26C169.072 5.54 168.927 5.86667 168.834 6.24C168.741 6.604 168.694 6.982 168.694 7.374C168.694 7.822 168.745 8.23733 168.848 8.62C168.96 8.99333 169.119 9.31533 169.324 9.586C169.529 9.85667 169.786 10.0667 170.094 10.216C170.402 10.3653 170.757 10.44 171.158 10.44C171.597 10.44 171.97 10.356 172.278 10.188C172.595 10.0107 172.852 9.77733 173.048 9.488C173.244 9.19867 173.389 8.872 173.482 8.508C173.575 8.144 173.622 7.766 173.622 7.374ZM188.83 3.846C188.634 2.98733 188.27 2.376 187.738 2.012C187.206 1.648 186.51 1.466 185.652 1.466C185.045 1.466 184.522 1.58733 184.084 1.83C183.645 2.07267 183.281 2.39933 182.992 2.81C182.712 3.22067 182.502 3.69667 182.362 4.238C182.231 4.77 182.166 5.33467 182.166 5.932C182.166 6.492 182.222 7.04267 182.334 7.584C182.455 8.12533 182.651 8.61067 182.922 9.04C183.192 9.46 183.556 9.80067 184.014 10.062C184.471 10.3233 185.045 10.454 185.736 10.454C186.165 10.454 186.557 10.384 186.912 10.244C187.266 10.104 187.574 9.91267 187.836 9.67C188.106 9.418 188.33 9.124 188.508 8.788C188.694 8.452 188.834 8.08333 188.928 7.682H189.922C189.81 8.16733 189.646 8.62933 189.432 9.068C189.217 9.49733 188.932 9.87533 188.578 10.202C188.232 10.5287 187.808 10.79 187.304 10.986C186.809 11.1727 186.226 11.266 185.554 11.266C184.779 11.266 184.116 11.126 183.566 10.846C183.015 10.5567 182.562 10.1693 182.208 9.684C181.862 9.19867 181.61 8.63867 181.452 8.004C181.293 7.36 181.214 6.67867 181.214 5.96C181.214 4.99867 181.33 4.182 181.564 3.51C181.806 2.838 182.138 2.292 182.558 1.872C182.978 1.44267 183.472 1.13467 184.042 0.947999C184.611 0.752 185.232 0.654 185.904 0.654C186.417 0.654 186.893 0.724 187.332 0.863999C187.78 0.994666 188.172 1.19533 188.508 1.466C188.853 1.73667 189.133 2.07267 189.348 2.474C189.572 2.866 189.726 3.32333 189.81 3.846H188.83ZM192.333 11V3.748H193.173V11H192.333ZM192.291 2.166V0.92H193.215V2.166H192.291ZM198.659 11.028C198.556 11.0467 198.421 11.0793 198.253 11.126C198.085 11.1727 197.898 11.196 197.693 11.196C197.273 11.196 196.951 11.0933 196.727 10.888C196.512 10.6733 196.405 10.2953 196.405 9.754V4.448H195.383V3.748H196.405V1.732H197.245V3.748H198.603V4.448H197.245V9.418C197.245 9.59533 197.249 9.74933 197.259 9.88C197.268 10.0107 197.296 10.118 197.343 10.202C197.389 10.286 197.459 10.3467 197.553 10.384C197.655 10.4213 197.795 10.44 197.973 10.44C198.085 10.44 198.197 10.4307 198.309 10.412C198.43 10.3933 198.547 10.37 198.659 10.342V11.028ZM200.751 12.974C200.863 12.9927 200.975 13.0113 201.087 13.03C201.209 13.0487 201.33 13.058 201.451 13.058C201.685 13.058 201.876 12.9833 202.025 12.834C202.175 12.6847 202.296 12.5027 202.389 12.288C202.492 12.0827 202.576 11.8633 202.641 11.63C202.707 11.406 202.781 11.2147 202.865 11.056L200.051 3.748H200.989L203.313 9.978L205.637 3.748H206.547L203.845 10.902C203.677 11.3593 203.514 11.77 203.355 12.134C203.206 12.498 203.043 12.806 202.865 13.058C202.697 13.3193 202.506 13.5153 202.291 13.646C202.086 13.786 201.839 13.856 201.549 13.856C201.4 13.856 201.255 13.8467 201.115 13.828C200.985 13.8093 200.863 13.786 200.751 13.758V12.974ZM207.742 11V9.768H208.764V11H207.742Z" fill="white"/>
</svg>
