<svg width="232" height="36" viewBox="0 0 232 36" fill="none" xmlns="http://www.w3.org/2000/svg">
<path d="M55.8468 7.2002C55.1885 7.2002 54.5302 7.39219 53.817 7.82419C52.7198 8.59219 52.2261 9.45619 52.2261 10.4642V16.2242C52.2261 16.8002 52.3907 17.3762 52.7747 17.9042C53.5976 19.0082 54.6947 19.5362 55.9565 19.5362H68.1901C68.245 19.5362 68.245 19.5362 68.245 19.4882V16.6562C68.245 16.6082 68.245 16.6082 68.1901 16.6082H57.8766C57.6571 16.6082 57.4377 16.5602 57.2731 16.5122C56.3954 16.1282 56.0114 15.5042 56.0114 14.5922V12.1922C56.0114 12.0962 56.0114 11.9522 56.0662 11.7602C56.3954 10.6562 56.9988 10.1282 57.9315 10.1282H68.245C68.2999 10.1282 68.2999 10.1282 68.2999 10.0802V7.24818C68.2999 7.20018 68.2999 7.2002 68.245 7.2002H55.8468Z" fill="white"/>
<path d="M83.2765 7.2002H70.988C70.9331 7.2002 70.9331 7.20018 70.9331 7.24818V19.4882C70.9331 19.5362 70.9331 19.5362 70.988 19.5362H74.6087C74.6635 19.5362 74.6636 19.5362 74.6636 19.4882V16.1282V13.2002V10.1282H77.3517H81.7404C81.905 10.1282 82.1244 10.1762 82.289 10.2242C82.8924 10.4642 83.1668 10.9442 83.1668 11.7122C83.1668 11.8562 83.1667 12.0002 83.1119 12.1922C82.8924 12.9122 82.4536 13.2482 81.6856 13.2482H77.2968V16.1762H80.2592C81.5758 18.2882 82.289 19.4402 82.3987 19.5842H86.7875H86.8423L84.5931 15.9362L85.0868 15.6962C86.2937 14.9282 86.8972 13.9682 86.8972 12.8162V10.5602C86.8972 9.8402 86.6229 9.16819 86.1291 8.54419C85.3611 7.68019 84.4285 7.2002 83.2765 7.2002Z" fill="white"/>
<path d="M105.714 7.2002H102.038C101.984 7.2482 100.557 8.9282 97.7594 12.0962L93.4804 7.2002H89.8048L89.75 7.24818L95.8942 14.3522V19.5362C95.8942 19.5842 95.8942 19.5842 95.9491 19.5842H99.5698C99.6247 19.5842 99.6247 19.5842 99.6247 19.5362V14.3522C103.41 9.98421 105.44 7.6322 105.769 7.2962C105.769 7.2482 105.714 7.2002 105.714 7.2002Z" fill="white"/>
<path d="M124.531 10.5121C124.531 9.9841 124.366 9.4561 124.037 8.8321C123.214 7.7281 122.117 7.1521 120.855 7.1521H108.621C108.567 7.1521 108.567 7.15209 108.567 7.20009V19.4401C108.567 19.4881 108.567 19.4881 108.621 19.4881H112.242C112.297 19.4881 112.297 19.4881 112.297 19.4401V16.0801V13.1521V10.0801H114.985H119.374C119.539 10.0801 119.758 10.1281 119.923 10.1761C120.526 10.4161 120.8 10.8961 120.8 11.6641C120.8 11.8081 120.8 11.9521 120.745 12.1441C120.526 12.8641 120.087 13.2001 119.319 13.2001H114.93V16.1281H120.91C121.513 16.1281 122.172 15.9361 122.83 15.6001C123.982 14.8321 124.531 13.8721 124.531 12.7681V10.5121Z" fill="white"/>
<path d="M143.238 10.0802V7.24818C143.238 7.20018 143.238 7.2002 143.183 7.2002H127.274C127.219 7.2002 127.219 7.20018 127.219 7.24818V10.0802C127.219 10.1282 127.219 10.1282 127.274 10.1282H133.363V19.4882C133.363 19.5362 133.363 19.5362 133.418 19.5362H137.039C137.093 19.5362 137.093 19.5362 137.093 19.4882V10.1282H143.183C143.238 10.1282 143.238 10.1282 143.238 10.0802Z" fill="white"/>
<path d="M158.269 7.2002H149.601C149.272 7.2002 148.779 7.29618 148.175 7.48818C146.694 8.20818 145.981 9.2162 145.981 10.5602V16.1762C145.981 16.7522 146.145 17.3282 146.529 17.8562C147.352 18.9602 148.449 19.4882 149.711 19.4882H158.269C158.873 19.4882 159.476 19.3442 160.025 19.0562C161.341 18.3362 162 17.3282 162 16.0802V10.5122C162 9.88821 161.835 9.2642 161.451 8.7362C160.628 7.7282 159.586 7.2002 158.269 7.2002ZM158.269 14.6402C158.269 14.8802 158.269 15.0722 158.214 15.2162C157.885 16.1762 157.282 16.6562 156.404 16.6562H151.631C151.467 16.6562 151.357 16.6562 151.192 16.6082C150.205 16.2722 149.711 15.6002 149.711 14.6402V12.1922C149.711 12.0002 149.711 11.8082 149.766 11.6162C150.095 10.6562 150.699 10.1762 151.576 10.1762H156.13C156.349 10.1762 156.569 10.1762 156.843 10.2242C157.775 10.5602 158.214 11.2802 158.214 12.3362V14.6402H158.269Z" fill="white"/>
<path d="M175.605 7.2002C174.946 7.2002 174.288 7.39219 173.575 7.82419C172.478 8.59219 171.984 9.45619 171.984 10.4642V16.2242C171.984 16.8002 172.148 17.3762 172.532 17.9042C173.355 19.0082 174.453 19.5362 175.714 19.5362H187.948C188.003 19.5362 188.003 19.5362 188.003 19.4882V16.6562C188.003 16.6082 188.003 16.6082 187.948 16.6082H177.634C177.415 16.6082 177.196 16.5602 177.031 16.5122C176.153 16.1282 175.769 15.5042 175.769 14.5922V12.1922C175.769 12.0962 175.769 11.9522 175.824 11.7602C176.153 10.6562 176.757 10.1282 177.689 10.1282H188.003C188.058 10.1282 188.058 10.1282 188.058 10.0802V7.24818C188.058 7.20018 188.058 7.2002 188.003 7.2002H175.605Z" fill="white"/>
<path d="M194.421 19.5362C194.476 19.5362 194.476 19.5362 194.476 19.4882V7.24818C194.476 7.20018 194.476 7.2002 194.421 7.2002H190.801C190.746 7.2002 190.746 7.20018 190.746 7.24818V19.4882C190.746 19.5362 190.746 19.5362 190.801 19.5362H194.421Z" fill="white"/>
<path d="M197.274 7.2002C197.219 7.2002 197.219 7.20018 197.219 7.24818V10.0802C197.219 10.1282 197.219 10.1282 197.274 10.1282H203.363V19.4882C203.363 19.5362 203.363 19.5362 203.418 19.5362H207.039C207.094 19.5362 207.094 19.5362 207.094 19.4882V10.1282H213.183C213.238 10.1282 213.238 10.1282 213.238 10.0802V7.24818C213.238 7.20018 213.238 7.2002 213.183 7.2002H197.274Z" fill="white"/>
<path d="M231.945 7.2002H228.27C228.215 7.2482 226.788 8.9282 223.991 12.0962L219.712 7.2002H216.036L215.981 7.24818L222.125 14.3522V19.5362C222.125 19.5842 222.125 19.5842 222.18 19.5842H225.801C225.856 19.5842 225.856 19.5842 225.856 19.5362V14.3522C229.641 9.98421 231.671 7.6322 232 7.2962C232 7.2482 232 7.2002 231.945 7.2002Z" fill="white"/>
<path d="M91.1213 25.968C91.3956 25.92 91.5602 25.776 91.7248 25.632C91.8893 25.44 91.9442 25.248 91.9442 25.008C91.9442 24.816 91.8893 24.624 91.7796 24.432C91.6699 24.24 91.5602 24.096 91.3956 24C91.2859 23.904 91.1213 23.856 90.9019 23.808C90.7373 23.76 90.4082 23.76 90.0241 23.76H88.8721V28.56H90.0241C90.5727 28.56 90.9567 28.512 91.1762 28.464C91.3956 28.416 91.615 28.32 91.7248 28.176C91.8893 28.032 91.999 27.888 92.0539 27.744C92.1088 27.552 92.1636 27.408 92.1636 27.216C92.1636 26.88 92.0539 26.64 91.8893 26.4C91.7248 26.16 91.4505 26.016 91.1213 25.968ZM89.5304 24.24H90.0241C90.5179 24.24 90.847 24.288 91.0116 24.432C91.1762 24.576 91.2859 24.768 91.2859 25.056C91.2859 25.344 91.1762 25.536 91.0116 25.632C90.847 25.728 90.5179 25.824 90.0241 25.824H89.5304V24.24ZM91.3956 27.552C91.3408 27.696 91.231 27.792 91.1213 27.84C91.0116 27.888 90.9019 27.936 90.7373 27.984C90.5727 27.984 90.3533 28.032 89.9693 28.032H89.4755V26.304H89.9693H90.1338C90.3533 26.304 90.5727 26.304 90.6824 26.352C90.7921 26.352 90.9019 26.4 91.0116 26.448C91.1762 26.496 91.2859 26.64 91.3407 26.736C91.3956 26.88 91.4505 27.024 91.4505 27.168C91.5053 27.312 91.4505 27.456 91.3956 27.552Z" fill="white"/>
<path d="M96.1134 23.7119H95.4551V28.5119H98.198V27.9839H96.1134V23.7119Z" fill="white"/>
<path d="M105.714 24.336C105.44 24.096 105.11 23.9039 104.781 23.8079C104.397 23.6639 104.068 23.616 103.684 23.616C103.3 23.616 102.916 23.6639 102.587 23.8079C102.203 23.9519 101.929 24.096 101.654 24.336C101.38 24.576 101.161 24.864 100.996 25.152C100.831 25.44 100.777 25.776 100.777 26.112C100.777 26.448 100.831 26.784 100.996 27.072C101.161 27.36 101.38 27.648 101.654 27.888C101.929 28.128 102.258 28.32 102.587 28.416C102.971 28.56 103.3 28.608 103.684 28.608C104.068 28.608 104.452 28.56 104.781 28.416C105.165 28.272 105.44 28.128 105.714 27.888C105.988 27.648 106.208 27.408 106.372 27.072C106.537 26.784 106.592 26.448 106.592 26.112C106.592 25.776 106.537 25.44 106.372 25.152C106.208 24.864 105.988 24.576 105.714 24.336ZM105.714 26.88C105.604 27.12 105.44 27.312 105.22 27.504C105.001 27.696 104.781 27.84 104.507 27.936C104.233 28.032 103.958 28.08 103.629 28.08C103.355 28.08 103.026 28.032 102.752 27.936C102.477 27.84 102.258 27.696 102.038 27.504C101.819 27.312 101.654 27.12 101.545 26.88C101.435 26.64 101.38 26.4 101.38 26.112C101.38 25.824 101.435 25.584 101.545 25.344C101.654 25.104 101.819 24.912 102.038 24.72C102.258 24.528 102.477 24.3839 102.752 24.2879C103.026 24.1919 103.3 24.144 103.629 24.144C103.904 24.144 104.233 24.1919 104.507 24.2879C104.781 24.3839 105.001 24.528 105.22 24.72C105.44 24.912 105.604 25.104 105.714 25.344C105.824 25.584 105.879 25.824 105.879 26.112C105.879 26.4 105.824 26.64 105.714 26.88Z" fill="white"/>
<path d="M112.571 23.616C112.187 23.616 111.803 23.6639 111.474 23.8079C111.145 23.9039 110.816 24.096 110.542 24.336C110.267 24.576 110.048 24.864 109.883 25.152C109.719 25.44 109.664 25.776 109.664 26.16C109.664 26.592 109.774 26.976 109.993 27.312C110.212 27.648 110.487 27.984 110.926 28.224C111.145 28.368 111.419 28.464 111.694 28.56C111.968 28.656 112.242 28.656 112.517 28.656C112.846 28.656 113.175 28.608 113.504 28.512C113.833 28.416 114.107 28.2719 114.382 28.128V27.36C114.162 27.6 113.888 27.792 113.559 27.936C113.285 28.08 112.955 28.128 112.571 28.128C112.187 28.128 111.858 28.0319 111.529 27.8879C111.2 27.7439 110.926 27.552 110.706 27.264C110.596 27.12 110.487 26.928 110.432 26.736C110.377 26.544 110.322 26.352 110.322 26.112C110.322 25.824 110.377 25.584 110.487 25.344C110.596 25.104 110.761 24.912 110.98 24.72C111.2 24.528 111.419 24.3839 111.694 24.2879C111.968 24.1919 112.242 24.144 112.517 24.144C112.901 24.144 113.175 24.192 113.504 24.336C113.778 24.432 114.053 24.624 114.327 24.864V24.144C114.053 23.952 113.723 23.856 113.449 23.76C113.175 23.664 112.901 23.616 112.571 23.616Z" fill="white"/>
<path d="M121.459 23.7119H120.69L118.386 25.8719V23.7119H117.783V28.5119H118.386V25.9199L120.855 28.5119H121.678L119.154 25.8719L121.459 23.7119Z" fill="white"/>
<path d="M126.944 23.616C126.56 23.616 126.176 23.6639 125.847 23.8079C125.518 23.9039 125.189 24.096 124.915 24.336C124.64 24.576 124.421 24.864 124.256 25.152C124.092 25.44 124.037 25.776 124.037 26.16C124.037 26.592 124.147 26.976 124.366 27.312C124.585 27.648 124.86 27.984 125.299 28.224C125.518 28.368 125.792 28.464 126.067 28.56C126.341 28.656 126.615 28.656 126.89 28.656C127.219 28.656 127.548 28.608 127.877 28.512C128.206 28.416 128.48 28.2719 128.755 28.128V27.36C128.535 27.6 128.261 27.792 127.932 27.936C127.658 28.08 127.328 28.128 126.944 28.128C126.56 28.128 126.231 28.0319 125.902 27.8879C125.573 27.7439 125.299 27.552 125.079 27.264C124.969 27.12 124.86 26.928 124.805 26.736C124.75 26.544 124.695 26.352 124.695 26.112C124.695 25.824 124.75 25.584 124.86 25.344C124.969 25.104 125.134 24.912 125.353 24.72C125.573 24.528 125.792 24.3839 126.067 24.2879C126.341 24.1919 126.615 24.144 126.89 24.144C127.274 24.144 127.548 24.192 127.877 24.336C128.151 24.432 128.426 24.624 128.7 24.864V24.144C128.426 23.952 128.096 23.856 127.822 23.76C127.548 23.664 127.274 23.616 126.944 23.616Z" fill="white"/>
<path d="M135.667 25.5839H132.759V23.7119H132.156V28.5119H132.759V26.1119H135.667V28.5119H136.325V23.7119H135.667V25.5839Z" fill="white"/>
<path d="M139.178 28.512H139.891L140.604 27.024H142.744L143.457 28.512H144.17L141.701 23.52L139.178 28.512ZM140.824 26.544L141.701 24.768L142.579 26.544H140.824Z" fill="white"/>
<path d="M147.681 23.7119H147.023V28.5119H147.681V23.7119Z" fill="white"/>
<path d="M155.307 27.36L151.302 23.52V28.512H151.905V24.912L155.91 28.704V23.712H155.307V27.36Z" fill="white"/>
<path d="M166.608 27.504L164.688 23.52L163.59 28.512H164.194L164.907 25.248L166.608 28.704L168.308 25.248L168.967 28.512H169.625L168.528 23.52L166.608 27.504Z" fill="white"/>
<path d="M172.752 28.5119H175.605V27.9839H173.41V26.1599H175.605V25.6319H173.41V24.2399H175.605V23.7119H172.752V28.5119Z" fill="white"/>
<path d="M182.572 24.192C182.352 24.048 182.078 23.904 181.749 23.856C181.42 23.808 180.871 23.76 180.103 23.76H179.061V28.56H180.103H180.323C180.981 28.56 181.42 28.512 181.749 28.464C182.078 28.416 182.352 28.272 182.572 28.128C182.901 27.936 183.12 27.648 183.285 27.312C183.45 26.976 183.504 26.592 183.504 26.16C183.504 25.728 183.45 25.344 183.285 25.008C183.12 24.672 182.846 24.384 182.572 24.192ZM182.627 26.976C182.517 27.216 182.352 27.456 182.133 27.6C181.968 27.744 181.749 27.792 181.475 27.84C181.2 27.888 180.761 27.936 180.103 27.936H179.664V24.24H180.103C180.761 24.24 181.2 24.288 181.475 24.336C181.749 24.384 181.968 24.48 182.133 24.624C182.352 24.768 182.517 25.008 182.627 25.248C182.736 25.488 182.791 25.776 182.791 26.112C182.846 26.448 182.791 26.736 182.627 26.976Z" fill="white"/>
<path d="M187.509 23.7119H186.851V28.5119H187.509V23.7119Z" fill="white"/>
<path d="M190.362 28.512H191.075L191.788 27.024H193.928L194.641 28.512H195.354L192.885 23.52L190.362 28.512ZM192.008 26.544L192.885 24.768L193.763 26.544H192.008Z" fill="white"/>
<path fill-rule="evenodd" clip-rule="evenodd" d="M0.0549316 26.496V12.864L23.3701 0L23.425 10.944L11.1914 17.712L7.68036 19.728L8.83242 20.352C10.6976 21.408 13.276 22.848 14.7572 24.768C15.9641 26.352 16.6773 28.8 16.9516 32.304L17.2259 35.904L0.0549316 26.496Z" fill="white"/>
<path fill-rule="evenodd" clip-rule="evenodd" d="M7.57058 19.6799L8.72264 20.3039C10.5879 21.3599 13.1662 22.7999 14.6474 24.7199C15.8543 26.3039 16.5675 28.7519 16.8418 32.2559L17.1161 35.8559L0 26.3999V15.5039" fill="white"/>
<path fill-rule="evenodd" clip-rule="evenodd" d="M18.1584 25.0081L30.3921 18.2401L33.903 16.2241L32.751 15.6001C30.8858 14.5441 28.3074 13.1041 26.8262 11.1841C25.6193 9.6001 24.9061 7.1521 24.6318 3.6481L24.3575 0.0480957L41.4737 9.5041V23.1361L18.1584 36.0001V25.0081Z" fill="white"/>
<path fill-rule="evenodd" clip-rule="evenodd" d="M33.9579 16.2241L32.8058 15.6001C30.9406 14.5441 28.3622 13.1041 26.881 11.1841C25.6741 9.6001 24.9609 7.1521 24.6867 3.6481L24.4124 0.0480957L41.5285 9.5041V20.4001" fill="white"/>
</svg>
