<svg width="152" height="30" viewBox="0 0 152 30" fill="none" xmlns="http://www.w3.org/2000/svg">
<path fill-rule="evenodd" clip-rule="evenodd" d="M0.0427246 22.119V10.7547L16.6456 0L16.6882 9.10014L7.96102 14.7605L5.4493 16.4586L6.25816 16.9811C7.57787 17.852 9.45101 19.0276 10.4727 20.6821C11.3242 21.9884 11.835 24.0784 12.0479 26.9956L12.2607 30L0.0427246 22.119Z" fill="white"/>
<path fill-rule="evenodd" clip-rule="evenodd" d="M5.40657 16.4586L6.21543 16.9811C7.53514 17.852 9.40829 19.0276 10.43 20.6821C11.2814 21.9884 11.7923 24.0784 12.0051 26.9956L12.218 30L0 22.119V13.0189" fill="url(#paint0_linear_403_303)"/>
<path fill-rule="evenodd" clip-rule="evenodd" d="M12.9417 20.8999L21.6688 15.2395L24.1805 13.5414L23.3717 13.0189C22.0519 12.148 20.1788 10.9724 19.1571 9.31785C18.3057 8.01161 17.7948 5.92162 17.5819 3.00435L17.3691 0L29.5871 7.88099V19.2453L12.9842 30L12.9417 20.8999Z" fill="white"/>
<path fill-rule="evenodd" clip-rule="evenodd" d="M24.2231 13.5414L23.4142 13.0189C22.0945 12.148 20.2213 10.9724 19.1996 9.31785C18.3482 8.01161 17.8373 5.92162 17.6245 3.00435L17.4116 0L29.6296 7.88099V16.9811" fill="url(#paint1_linear_403_303)"/>
<g opacity="0.8" clip-path="url(#clip0_403_303)">
<path d="M53.9045 9.16958V11.4657C52.7768 10.5302 51.6063 10.0625 50.4072 10.0625C49.0797 10.0625 47.9663 10.5302 47.0527 11.4799C46.1391 12.4153 45.6823 13.5775 45.6823 14.9382C45.6823 16.2988 46.1391 17.4185 47.0527 18.3398C47.9663 19.2611 49.0939 19.7288 50.4215 19.7288C51.1067 19.7288 51.6919 19.6154 52.163 19.4028C52.4342 19.2894 52.7054 19.1477 52.9909 18.9493C53.2764 18.7508 53.5762 18.5382 53.9045 18.2689V20.6076C52.7911 21.2312 51.6206 21.543 50.3929 21.543C48.5515 21.543 46.967 20.9052 45.668 19.6296C44.369 18.3398 43.7124 16.7807 43.7124 14.9665C43.7124 13.3366 44.2548 11.8767 45.3397 10.6011C46.6815 9.02784 48.4088 8.23413 50.5357 8.23413C51.6919 8.23413 52.8196 8.54595 53.9045 9.16958Z" fill="white"/>
<path d="M60.7278 15.8453L64.7247 21.3162H62.3408L58.658 16.0721H58.3011V21.3162H56.3455V8.48926H58.6294C60.3424 8.48926 61.57 8.80107 62.3265 9.43888C63.1687 10.1476 63.5827 11.083 63.5827 12.2452C63.5827 13.1523 63.3258 13.9319 62.7976 14.5838C62.2694 15.2358 61.5843 15.661 60.7278 15.8311V15.8453ZM58.3011 14.3712H58.9149C60.7563 14.3712 61.6842 13.6767 61.6842 12.2736C61.6842 10.9554 60.7849 10.3035 58.9863 10.3035H58.2868V14.3712H58.3011Z" fill="white"/>
<path d="M68.7074 15.7744L64.4963 8.48926H66.7375L69.6923 13.62L72.6472 8.48926H74.8883L70.663 15.7744V21.3162H68.7074V15.7744Z" fill="white"/>
<path d="M78.3284 16.1004V21.3021H76.3728V8.48926H78.5854C79.6703 8.48926 80.4839 8.56013 81.0406 8.71603C81.5973 8.87194 82.0827 9.14124 82.5109 9.56644C83.2532 10.2893 83.6243 11.1964 83.6243 12.2877C83.6243 13.4641 83.2246 14.3854 82.4395 15.0799C81.6544 15.7744 80.5838 16.1146 79.242 16.1146H78.3427L78.3284 16.1004ZM78.3284 14.3004H79.0564C80.8408 14.3004 81.7401 13.62 81.7401 12.2452C81.7401 10.8704 80.8122 10.2609 78.9708 10.2609H78.3284V14.3004Z" fill="white"/>
<path d="M89.1914 10.3035V21.3021H87.2357V10.3035H84.2666V8.48926H92.1462V10.3035H89.1914Z" fill="white"/>
<path d="M92.8457 14.839C92.8457 13.039 93.5166 11.4799 94.8442 10.1901C96.1717 8.90033 97.7705 8.24835 99.6262 8.24835C101.482 8.24835 103.038 8.90033 104.365 10.2043C105.693 11.5082 106.35 13.0815 106.35 14.9099C106.35 16.7383 105.693 18.3115 104.365 19.6013C103.038 20.8911 101.425 21.5431 99.5405 21.5431C97.8704 21.5431 96.3715 20.9761 95.044 19.8281C93.588 18.5666 92.8457 16.8942 92.8457 14.839ZM94.8156 14.8674C94.8156 16.2847 95.3009 17.4469 96.2574 18.3682C97.2138 19.2753 98.3129 19.743 99.5548 19.743C100.911 19.743 102.053 19.2753 102.981 18.354C103.909 17.4186 104.38 16.2705 104.38 14.9099C104.38 13.5492 103.923 12.4012 102.995 11.4657C102.081 10.5303 100.954 10.0767 99.5976 10.0767C98.2415 10.0767 97.1138 10.5445 96.2003 11.4657C95.2724 12.387 94.8156 13.5209 94.8156 14.8674Z" fill="white"/>
<path d="M116.028 16.1004V21.3021H114.072V8.48926H116.285C117.37 8.48926 118.183 8.56013 118.74 8.71603C119.297 8.87194 119.782 9.14124 120.21 9.56644C120.953 10.2893 121.324 11.1964 121.324 12.2877C121.324 13.4641 120.924 14.3854 120.139 15.0799C119.354 15.7744 118.283 16.1146 116.941 16.1146H116.042L116.028 16.1004ZM116.028 14.3004H116.756C118.54 14.3004 119.44 13.62 119.44 12.2452C119.44 10.8704 118.512 10.2609 116.67 10.2609H116.028V14.3004Z" fill="white"/>
<path d="M125.278 8.48926V19.4879H129.075V21.3021H123.322V8.48926H125.278Z" fill="white"/>
<path d="M139.224 18.1981H133.7L132.258 21.3163H130.16L136.555 7.6814L142.721 21.3163H140.594L139.238 18.1981H139.224ZM138.425 16.3839L136.512 12.0185L134.499 16.3839H138.425Z" fill="white"/>
<path d="M145.819 15.7744L141.608 8.48926H143.849L146.804 13.62L149.759 8.48926H152L147.775 15.7744V21.3162H145.819V15.7744Z" fill="white"/>
</g>
<defs>
<linearGradient id="paint0_linear_403_303" x1="0.0244786" y1="21.5202" x2="12.2421" y2="21.5202" gradientUnits="userSpaceOnUse">
<stop stop-color="white"/>
<stop offset="1" stop-color="#C2C2C2"/>
</linearGradient>
<linearGradient id="paint1_linear_403_303" x1="17.3694" y1="8.5008" x2="29.5871" y2="8.5008" gradientUnits="userSpaceOnUse">
<stop stop-color="white"/>
<stop offset="1" stop-color="#C2C2C2"/>
</linearGradient>
<clipPath id="clip0_403_303">
<rect width="108.288" height="13.8616" fill="white" transform="translate(43.7124 7.6814)"/>
</clipPath>
</defs>
</svg>
