<svg width="22" height="22" viewBox="0 0 22 22" fill="none" xmlns="http://www.w3.org/2000/svg">
<path d="M11 1.375C11.3868 1.38921 11.709 1.52533 11.9666 1.78338C12.2242 2.04142 12.3603 2.36362 12.375 2.75V4.125H9.625V2.75C9.63921 2.36317 9.77533 2.04096 10.0334 1.78338C10.2914 1.52579 10.6136 1.38967 11 1.375ZM5.5 16.5H16.5V9.625C16.4569 8.06392 15.9198 6.76775 14.8885 5.7365C13.8573 4.70525 12.5611 4.16808 11 4.125C9.43892 4.16808 8.14275 4.70525 7.1115 5.7365C6.08025 6.76775 5.54308 8.06392 5.5 9.625V16.5ZM11 2.75C12.9479 2.79308 14.57 3.46271 15.8661 4.75887C17.1623 6.05504 17.8319 7.67708 17.875 9.625V17.875H4.125V9.625C4.16808 7.67708 4.83771 6.05504 6.13387 4.75887C7.43004 3.46271 9.05208 2.79308 11 2.75ZM2.0625 16.5H19.9375C20.3958 16.5 20.625 16.7292 20.625 17.1875C20.625 17.6458 20.3958 17.875 19.9375 17.875H2.0625C1.60417 17.875 1.375 17.6458 1.375 17.1875C1.375 16.7292 1.60417 16.5 2.0625 16.5ZM9.625 19.25H12.375C12.3608 19.6368 12.2247 19.959 11.9666 20.2166C11.7086 20.4742 11.3864 20.6032 11 20.6037C10.6136 20.6041 10.2914 20.4751 10.0334 20.2166C9.77533 19.9581 9.63921 19.6359 9.625 19.25Z" fill="#B0B0B0"/>
</svg>
