<svg width="10" height="18" viewBox="0 0 10 18" fill="none" xmlns="http://www.w3.org/2000/svg">
<path d="M3.33246 10.0446C3.27077 10.0446 1.97679 10.045 1.38 10.0444C1.07276 10.0442 0.963141 9.93053 0.963141 9.61223C0.962748 8.79465 0.962551 7.97706 0.963141 7.15948C0.963337 6.84522 1.07924 6.72531 1.38255 6.72511C1.97935 6.7247 3.26625 6.7249 3.33246 6.7249C3.33246 6.66889 3.33226 5.48852 3.33246 4.94494C3.33285 4.14131 3.47213 3.37206 3.86875 2.66772C4.2748 1.9468 4.86571 1.45297 5.623 1.16743C6.10802 0.98442 6.61151 0.911418 7.12619 0.911013C7.77014 0.910609 8.41408 0.911216 9.05822 0.912429C9.33501 0.912833 9.45779 1.03882 9.45838 1.32577C9.45956 2.09482 9.45956 2.86387 9.45838 3.63272C9.45799 3.92271 9.34032 4.03919 9.05724 4.04242C8.52939 4.04829 8.00115 4.04465 7.4739 4.06649C6.94134 4.06649 6.66121 4.33423 6.66121 4.90167C6.64844 5.50186 6.6559 6.10267 6.6559 6.7247C6.7058 6.7247 8.22137 6.7245 8.92975 6.7247C9.25152 6.7247 9.36153 6.83855 9.36153 7.17161C9.36153 7.98475 9.36133 8.79809 9.36075 9.61122C9.36055 9.93943 9.25722 10.0442 8.93348 10.0444C8.2251 10.0448 6.71543 10.0446 6.64942 10.0446V16.6259C6.64942 16.9768 6.54216 17.0886 6.20585 17.0886C5.38589 17.0886 4.56573 17.0888 3.74578 17.0886C3.44855 17.0886 3.33265 16.9697 3.33265 16.6637C3.33246 14.5204 3.33246 10.1198 3.33246 10.0446Z" fill="white"/>
</svg>
