<svg width="15" height="12" viewBox="0 0 15 12" fill="none" xmlns="http://www.w3.org/2000/svg">
<path d="M14.7222 1.98932C14.2065 2.21552 13.657 2.36545 13.0842 2.43825C13.6735 2.08638 14.1233 1.53345 14.3348 0.866984C13.7853 1.19458 13.1786 1.42598 12.5321 1.55512C12.0104 0.999584 11.2668 0.655518 10.4556 0.655518C8.8817 0.655518 7.61463 1.93298 7.61463 3.49905C7.61463 3.72438 7.6337 3.94105 7.6805 4.14732C5.3171 4.03205 3.22583 2.89932 1.82097 1.17378C0.816326 2.9839 1.93883 4.46798 2.69457 4.97325C2.23783 4.96458 1.78977 4.83198 1.41017 4.62312C1.41017 6.03422 2.39557 7.18325 3.68777 7.44758C3.40523 7.54136 2.78799 7.59232 2.40423 7.49265C2.77257 8.61845 3.81777 9.44612 5.06057 9.47298C4.09337 10.2296 2.66805 10.8463 0.855499 10.6465C2.11477 11.4585 3.60717 11.9222 5.21657 11.9222C10.4478 11.9222 13.3078 7.58885 13.3078 3.83272C13.3078 3.70705 13.3034 3.58572 13.2974 3.46525C13.8616 3.06485 14.3356 2.56478 14.7222 1.98932Z" fill="white"/>
</svg>
