<svg width="17" height="16" viewBox="0 0 17 16" fill="none" xmlns="http://www.w3.org/2000/svg">
<path d="M11.3728 4.60095C10.81 1.98743 9.60997 0.333984 8.50002 0.333984C7.39008 0.333984 6.18999 1.98743 5.62729 4.60095H11.3728Z" fill="white"/>
<path d="M5.2998 7.80108C5.29967 8.51462 5.34725 9.22738 5.44221 9.93457H11.5578C11.6528 9.22738 11.7004 8.51462 11.7003 7.80108C11.7004 7.08754 11.6528 6.37479 11.5578 5.6676H5.44221C5.34725 6.37479 5.29967 7.08754 5.2998 7.80108Z" fill="white"/>
<path d="M5.62729 11.0013C6.18999 13.6149 7.39008 15.2683 8.50002 15.2683C9.60997 15.2683 10.81 13.6149 11.3728 11.0013H5.62729Z" fill="white"/>
<path d="M12.4651 4.60086H15.8253C15.3204 3.45185 14.5533 2.43715 13.5855 1.63816C12.6176 0.839167 11.476 0.278113 10.2521 0C11.2639 0.890196 12.0576 2.53618 12.4651 4.60086Z" fill="white"/>
<path d="M16.2088 5.6676H12.6352C12.7232 6.37535 12.7672 7.08788 12.767 7.80108C12.767 8.5143 12.7229 9.22683 12.6347 9.93457H16.2083C16.5973 8.53884 16.5973 7.06333 16.2083 5.6676H16.2088Z" fill="white"/>
<path d="M10.2521 15.6022C11.4762 15.3242 12.618 14.7632 13.5861 13.9642C14.5541 13.1652 15.3214 12.1505 15.8264 11.0013H12.4662C12.0576 13.066 11.2639 14.712 10.2521 15.6022Z" fill="white"/>
<path d="M4.53492 11.0013H1.17468C1.67967 12.1505 2.44697 13.1652 3.41502 13.9642C4.38306 14.7632 5.52491 15.3242 6.74894 15.6022C5.73607 14.712 4.94241 13.066 4.53492 11.0013Z" fill="white"/>
<path d="M6.7479 0C5.52387 0.277962 4.38203 0.838948 3.41398 1.63795C2.44593 2.43695 1.67864 3.45173 1.17365 4.60086H4.53388C4.94244 2.53618 5.7361 0.890196 6.7479 0Z" fill="white"/>
<path d="M4.23303 7.80108C4.23296 7.08787 4.27714 6.37534 4.36531 5.6676H0.791728C0.402757 7.06333 0.402757 8.53884 0.791728 9.93457H4.36531C4.27714 9.22683 4.23296 8.5143 4.23303 7.80108Z" fill="white"/>
</svg>
