<svg width="15" height="14" viewBox="0 0 15 14" fill="none" xmlns="http://www.w3.org/2000/svg">
<path d="M10.6321 0.0667725H4.36811C2.27205 0.0667725 0.566772 1.77205 0.566772 3.86813V10.1321C0.566772 12.2282 2.27205 13.9334 4.36811 13.9334H10.6321C12.7282 13.9334 14.4334 12.2282 14.4334 10.1321V3.86813C14.4334 1.77205 12.7282 0.0667725 10.6321 0.0667725ZM7.50011 10.8035C5.40291 10.8035 3.69677 9.0973 3.69677 7.00011C3.69677 4.90291 5.40294 3.19679 7.50011 3.19679C9.59728 3.19679 11.3035 4.90294 11.3035 7.00011C11.3035 9.09728 9.59728 10.8035 7.50011 10.8035ZM11.5309 4.12483C10.8938 4.12483 10.3754 3.60646 10.3754 2.96929C10.3754 2.33213 10.8938 1.81373 11.5309 1.81373C12.1681 1.81373 12.6865 2.3321 12.6865 2.96927C12.6865 3.60643 12.1681 4.12483 11.5309 4.12483Z" fill="white"/>
</svg>
