<svg width="15" height="14" viewBox="0 0 15 14" fill="none" xmlns="http://www.w3.org/2000/svg">
<path d="M7.49995 0.134277C3.55055 0.134277 0.33551 2.76005 0.33551 5.98709C0.33551 8.87741 2.8848 11.299 6.32678 11.7593C6.56016 11.8089 6.8779 11.9146 6.9585 12.1139C7.03015 12.2948 7.00561 12.5743 6.98125 12.7629L6.88327 13.3754C6.85641 13.5563 6.73999 14.0877 7.50963 13.7628C8.28034 13.4392 11.6387 11.3126 13.1432 9.57218C14.1724 8.43787 14.6644 7.27544 14.6644 5.98691C14.6644 2.76005 11.4494 0.134277 7.49995 0.134277ZM4.69561 7.90591H3.27114C3.06516 7.90591 2.89501 7.7345 2.89501 7.52798V4.66149C2.89501 4.45426 3.06516 4.28303 3.27114 4.28303C3.47891 4.28303 3.64727 4.45444 3.64727 4.66149V7.14934H4.69561C4.90338 7.14934 5.07121 7.3195 5.07121 7.5278C5.07121 7.7345 4.90284 7.90591 4.69561 7.90591ZM6.1679 7.52798C6.1679 7.7345 5.99954 7.90591 5.79123 7.90591C5.58526 7.90591 5.41689 7.7345 5.41689 7.52798V4.66149C5.41689 4.45426 5.58526 4.28303 5.79303 4.28303C5.99954 4.28303 6.1679 4.45444 6.1679 4.66149V7.52798ZM9.59555 7.52798C9.59555 7.69044 9.49167 7.83426 9.33763 7.88621C9.29948 7.89874 9.25829 7.90465 9.21888 7.90465C9.09297 7.90465 8.9855 7.85038 8.91439 7.7542L7.45589 5.76123V7.52727C7.45589 7.73378 7.28932 7.90519 7.07922 7.90519C6.87271 7.90519 6.70542 7.73378 6.70542 7.52727V4.66149C6.70542 4.49904 6.80876 4.35521 6.96208 4.3038C6.99791 4.29001 7.04322 4.2841 7.07797 4.2841C7.19439 4.2841 7.30186 4.34679 7.3735 4.43688L8.84347 6.43756V4.66131C8.84347 4.45408 9.01183 4.28285 9.2196 4.28285C9.42558 4.28285 9.59573 4.45426 9.59573 4.66131V7.52798H9.59555ZM11.8971 5.71592C12.1054 5.71592 12.2733 5.88733 12.2733 6.0951C12.2733 6.30233 12.1054 6.47356 11.8971 6.47356H10.8493V7.14934H11.8971C12.1054 7.14934 12.2733 7.3195 12.2733 7.5278C12.2733 7.73432 12.1054 7.90573 11.8971 7.90573H10.4727C10.2667 7.90573 10.0983 7.73432 10.0983 7.5278V4.66149C10.0983 4.45426 10.2667 4.28303 10.4745 4.28303H11.8989C12.1054 4.28303 12.2733 4.45444 12.2733 4.66149C12.2733 4.87105 12.1054 5.03995 11.8971 5.03995H10.8493V5.71574H11.8971V5.71592Z" fill="white"/>
</svg>
