<svg width="15" height="14" viewBox="0 0 15 14" fill="none" xmlns="http://www.w3.org/2000/svg">
<g clip-path="url(#clip0_403_589)">
<path d="M11.531 2.63281C11.3453 2.63281 11.1943 2.78386 11.1943 2.96946C11.1943 3.15506 11.3453 3.3061 11.531 3.3061C11.7166 3.3061 11.8676 3.15509 11.8676 2.96946C11.8676 2.78383 11.7166 2.63281 11.531 2.63281Z" fill="white"/>
<path d="M7.5001 4.01562C5.85446 4.01562 4.51562 5.35446 4.51562 7.0001C4.51562 8.64574 5.85446 9.9846 7.5001 9.9846C9.14576 9.9846 10.4846 8.64576 10.4846 7.00013C10.4846 5.35449 9.14576 4.01562 7.5001 4.01562Z" fill="white"/>
<path d="M10.6321 0.0668945H4.36811C2.27205 0.0668945 0.566772 1.77217 0.566772 3.86826V10.1322C0.566772 12.2283 2.27205 13.9336 4.36811 13.9336H10.6321C12.7282 13.9336 14.4334 12.2283 14.4334 10.1322V3.86826C14.4334 1.77217 12.7282 0.0668945 10.6321 0.0668945ZM7.50011 10.8036C5.40291 10.8036 3.69677 9.09743 3.69677 7.00023C3.69677 4.90303 5.40294 3.19692 7.50011 3.19692C9.59728 3.19692 11.3035 4.90306 11.3035 7.00023C11.3035 9.0974 9.59728 10.8036 7.50011 10.8036ZM11.5309 4.12495C10.8938 4.12495 10.3754 3.60658 10.3754 2.96942C10.3754 2.33225 10.8938 1.81385 11.5309 1.81385C12.1681 1.81385 12.6865 2.33223 12.6865 2.96939C12.6865 3.60655 12.1681 4.12495 11.5309 4.12495Z" fill="white"/>
</g>
<defs>
<clipPath id="clip0_403_589">
<rect width="13.8667" height="13.8667" fill="white" transform="translate(0.566772 0.0668945)"/>
</clipPath>
</defs>
</svg>
