<svg width="19" height="14" viewBox="0 0 19 14" fill="none" xmlns="http://www.w3.org/2000/svg">
<path d="M15.5067 1.14441C14.4019 0.645641 13.2172 0.27815 11.9786 0.0676556C11.956 0.0635917 11.9335 0.0737516 11.9219 0.0940382C11.7695 0.360695 11.6007 0.708532 11.4825 0.981952C10.1503 0.785681 8.8248 0.785681 7.51986 0.981952C7.40164 0.70247 7.22675 0.360695 7.07369 0.0940382C7.06208 0.0744178 7.03953 0.0642579 7.01699 0.0676556C5.779 0.27745 4.59431 0.644941 3.48884 1.14441C3.47925 1.14848 3.47106 1.15524 3.46561 1.16403C1.2185 4.46735 0.6029 7.68949 0.904879 10.8717C0.906233 10.8872 0.915137 10.9021 0.927426 10.9116C2.41 11.9829 3.84617 12.6333 5.25562 13.0644C5.27817 13.0712 5.30207 13.0631 5.31642 13.0448C5.64982 12.5968 5.94702 12.1244 6.20184 11.6276C6.21688 11.5985 6.20252 11.564 6.17178 11.5525C5.70036 11.3766 5.25149 11.162 4.81968 10.9184C4.78552 10.8988 4.78278 10.8507 4.81423 10.8277C4.90509 10.7607 4.99599 10.691 5.08276 10.6206C5.09847 10.6077 5.12034 10.605 5.13879 10.6131C7.9755 11.8875 11.0466 11.8875 13.8498 10.6131C13.8683 10.6043 13.8901 10.6071 13.9065 10.6199C13.9933 10.6903 14.0842 10.7607 14.1757 10.8277C14.2071 10.8507 14.2051 10.8987 14.171 10.9184C13.7391 11.1667 13.2903 11.3765 12.8182 11.5518C12.7874 11.5633 12.7738 11.5985 12.7888 11.6276C13.0491 12.1237 13.3463 12.596 13.6736 13.0441C13.6872 13.063 13.7118 13.0712 13.7344 13.0644C15.1507 12.6333 16.5868 11.9829 18.0694 10.9116C18.0824 10.9021 18.0906 10.8879 18.092 10.8723C18.4534 7.19338 17.4866 3.99766 15.5292 1.1647C15.5244 1.15524 15.5163 1.14848 15.5067 1.14441ZM6.62553 8.93403C5.77149 8.93403 5.06776 8.16254 5.06776 7.21503C5.06776 6.26756 5.75781 5.49604 6.62553 5.49604C7.50002 5.49604 8.19694 6.27432 8.18326 7.21503C8.18326 8.16254 7.49318 8.93403 6.62553 8.93403ZM12.385 8.93403C11.531 8.93403 10.8273 8.16254 10.8273 7.21503C10.8273 6.26756 11.5174 5.49604 12.385 5.49604C13.2596 5.49604 13.9565 6.27432 13.9428 7.21503C13.9428 8.16254 13.2596 8.93403 12.385 8.93403Z" fill="white"/>
</svg>
