<svg width="10" height="18" viewBox="0 0 10 18" fill="none" xmlns="http://www.w3.org/2000/svg">
<path d="M3.33244 10.0443C3.27076 10.0443 1.97678 10.0447 1.37998 10.0441C1.07274 10.0439 0.963125 9.93029 0.963125 9.61199C0.962732 8.7944 0.962536 7.97682 0.963125 7.15923C0.963322 6.84498 1.07922 6.72506 1.38253 6.72486C1.97933 6.72446 3.26624 6.72466 3.33244 6.72466C3.33244 6.66864 3.33224 5.48827 3.33244 4.9447C3.33283 4.14107 3.47211 3.37181 3.86873 2.66747C4.27478 1.94655 4.86569 1.45272 5.62298 1.16719C6.108 0.984176 6.61149 0.911174 7.12618 0.910769C7.77012 0.910365 8.41406 0.910972 9.05821 0.912185C9.335 0.912589 9.45777 1.03857 9.45836 1.32553C9.45954 2.09458 9.45954 2.86363 9.45836 3.63248C9.45797 3.92247 9.3403 4.03895 9.05722 4.04218C8.52938 4.04805 8.00114 4.04441 7.47388 4.06625C6.94132 4.06625 6.66119 4.33399 6.66119 4.90142C6.64842 5.50162 6.65589 6.10242 6.65589 6.72446C6.70578 6.72446 8.22135 6.72425 8.92973 6.72446C9.25151 6.72446 9.36152 6.83831 9.36152 7.17137C9.36152 7.9845 9.36132 8.79784 9.36073 9.61098C9.36053 9.93918 9.2572 10.0439 8.93346 10.0441C8.22508 10.0445 6.71541 10.0443 6.6494 10.0443V16.6257C6.6494 16.9765 6.54215 17.0883 6.20583 17.0883C5.38587 17.0883 4.56572 17.0885 3.74576 17.0883C3.44854 17.0883 3.33264 16.9694 3.33264 16.6635C3.33244 14.5201 3.33244 10.1196 3.33244 10.0443Z" fill="white"/>
</svg>
