<svg width="26" height="26" viewBox="0 0 26 26" fill="none" xmlns="http://www.w3.org/2000/svg">
<circle cx="13" cy="13" r="12.5" stroke="white" stroke-opacity="0.2"/>
<g clip-path="url(#clip0_1_3448)">
<path d="M17.031 8.63281C16.8454 8.63281 16.6943 8.78386 16.6943 8.96946C16.6943 9.15506 16.8454 9.3061 17.031 9.3061C17.2166 9.3061 17.3676 9.15509 17.3676 8.96946C17.3676 8.78383 17.2166 8.63281 17.031 8.63281Z" fill="white"/>
<path d="M13.0003 10.0159C11.3547 10.0159 10.0159 11.3547 10.0159 13.0003C10.0159 14.646 11.3547 15.9848 13.0003 15.9848C14.646 15.9848 15.9848 14.646 15.9848 13.0004C15.9848 11.3547 14.646 10.0159 13.0003 10.0159Z" fill="white"/>
<path d="M16.1322 6.06689H9.86823C7.77217 6.06689 6.06689 7.77217 6.06689 9.86826V16.1322C6.06689 18.2283 7.77217 19.9336 9.86823 19.9336H16.1322C18.2283 19.9336 19.9336 18.2283 19.9336 16.1322V9.86826C19.9336 7.77217 18.2283 6.06689 16.1322 6.06689ZM13.0002 16.8036C10.903 16.8036 9.19689 15.0974 9.19689 13.0002C9.19689 10.903 10.9031 9.19692 13.0002 9.19692C15.0974 9.19692 16.8036 10.9031 16.8036 13.0002C16.8036 15.0974 15.0974 16.8036 13.0002 16.8036ZM17.0311 10.125C16.3939 10.125 15.8755 9.60658 15.8755 8.96942C15.8755 8.33225 16.3939 7.81385 17.0311 7.81385C17.6682 7.81385 18.1866 8.33223 18.1866 8.96939C18.1866 9.60655 17.6682 10.125 17.0311 10.125Z" fill="white"/>
</g>
<defs>
<clipPath id="clip0_1_3448">
<rect width="13.8667" height="13.8667" fill="white" transform="translate(6.06689 6.06689)"/>
</clipPath>
</defs>
</svg>
