<svg width="40" height="32" viewBox="0 0 40 32" fill="none" xmlns="http://www.w3.org/2000/svg">
<g opacity="0.8">
<path d="M20.5 18C21.8807 18 23 16.8807 23 15.5C23 14.1193 21.8807 13 20.5 13C19.1193 13 18 14.1193 18 15.5C18 16.8807 19.1193 18 20.5 18Z" fill="white"/>
<path d="M10.5 18C11.8807 18 13 16.8807 13 15.5C13 14.1193 11.8807 13 10.5 13C9.11929 13 8 14.1193 8 15.5C8 16.8807 9.11929 18 10.5 18Z" fill="white"/>
<path d="M30.5 18C31.8807 18 33 16.8807 33 15.5C33 14.1193 31.8807 13 30.5 13C29.1193 13 28 14.1193 28 15.5C28 16.8807 29.1193 18 30.5 18Z" fill="white"/>
</g>
</svg>
