<svg width="22" height="22" viewBox="0 0 22 22" fill="none" xmlns="http://www.w3.org/2000/svg">
<g opacity="0.8">
<path d="M17.1016 16.135L19.787 18.8203C19.9158 18.9638 19.9802 19.1249 19.9802 19.3037C19.9802 19.4824 19.9121 19.6401 19.776 19.7767C19.6398 19.9132 19.4822 19.9813 19.303 19.9808C19.1238 19.9804 18.9627 19.916 18.8197 19.7877L16.1343 17.1023C14.2294 18.6634 12.1168 19.3758 9.79622 19.2397C7.47568 19.1036 5.46336 18.1546 3.75928 16.3928C2.12624 14.5452 1.33126 12.4612 1.37434 10.1407C1.41743 7.82011 2.29124 5.77182 3.99578 3.99578C5.77182 2.29124 7.82011 1.41743 10.1407 1.37434C12.4612 1.33126 14.5452 2.12624 16.3928 3.75928C18.1546 5.46382 19.1036 7.47613 19.2397 9.79622C19.3758 12.1163 18.6634 14.229 17.1023 16.1343L17.1016 16.135ZM10.3125 17.875C12.4612 17.8177 14.2443 17.0801 15.662 15.662C17.0796 14.2439 17.8173 12.4607 17.875 10.3125C17.8177 8.16386 17.0801 6.38072 15.662 4.96309C14.2439 3.54547 12.4607 2.80778 10.3125 2.75003C8.16386 2.80732 6.38072 3.54501 4.96309 4.96309C3.54547 6.38117 2.80778 8.16432 2.75003 10.3125C2.80732 12.4612 3.54501 14.2443 4.96309 15.662C6.38118 17.0796 8.16432 17.8173 10.3125 17.875Z" fill="white"/>
</g>
</svg>
